<mxfile host="app.diagrams.net" modified="2023-05-19T12:02:35.388Z" agent="Mozilla/5.0 (Windows NT 10.0; Win64; x64) AppleWebKit/537.36 (KHTML, like Gecko) Chrome/113.0.0.0 Safari/537.36" version="21.2.9" etag="a6A4-PXhAHI-wfuXMnzM" type="github">
  <diagram name="第 1 页" id="MEtS6qsO3nr3wH2l9zZN">
    <mxGraphModel>
      <root>
        <mxCell id="0" />
        <mxCell id="1" parent="0" />
      </root>
    </mxGraphModel>
  </diagram>
</mxfile>
